<svg width="24" height="24" viewBox="0 0 24 24" fill="none" xmlns="http://www.w3.org/2000/svg">
<path d="M12 19C8.13401 19 5 15.866 5 12C5 8.13401 8.13401 5 12 5C15.866 5 19 8.13401 19 12C19 15.866 15.866 19 12 19ZM12 17C14.7614 17 17 14.7614 17 12C17 9.23858 14.7614 7 12 7C9.23858 7 7 9.23858 7 12C7 14.7614 9.23858 17 12 17ZM13 3C13 3.55228 12.5523 4 12 4C11.4477 4 11 3.55228 11 3V1C11 0.447715 11.4477 0 12 0C12.5523 0 13 0.447715 13 1V3ZM21 13C20.4477 13 20 12.5523 20 12C20 11.4477 20.4477 11 21 11H23C23.5523 11 24 11.4477 24 12C24 12.5523 23.5523 13 23 13H21ZM17.7929 19.2071C17.4024 18.8166 17.4024 18.1834 17.7929 17.7929C18.1834 17.4024 18.8166 17.4024 19.2071 17.7929L20.7071 19.2929C21.0976 19.6834 21.0976 20.3166 20.7071 20.7071C20.3166 21.0976 19.6834 21.0976 19.2929 20.7071L17.7929 19.2071ZM3.29289 4.70711C2.90237 4.31658 2.90237 3.68342 3.29289 3.29289C3.68342 2.90237 4.31658 2.90237 4.70711 3.29289L6.20711 4.79289C6.59763 5.18342 6.59763 5.81658 6.20711 6.20711C5.81658 6.59763 5.18342 6.59763 4.79289 6.20711L3.29289 4.70711ZM11 21C11 20.4477 11.4477 20 12 20C12.5523 20 13 20.4477 13 21V23C13 23.5523 12.5523 24 12 24C11.4477 24 11 23.5523 11 23V21ZM4.79289 17.7929C5.18342 17.4024 5.81658 17.4024 6.20711 17.7929C6.59763 18.1834 6.59763 18.8166 6.20711 19.2071L4.70711 20.7071C4.31658 21.0976 3.68342 21.0976 3.29289 20.7071C2.90237 20.3166 2.90237 19.6834 3.29289 19.2929L4.79289 17.7929ZM19.2929 3.29289C19.6834 2.90237 20.3166 2.90237 20.7071 3.29289C21.0976 3.68342 21.0976 4.31658 20.7071 4.70711L19.2071 6.20711C18.8166 6.59763 18.1834 6.59763 17.7929 6.20711C17.4024 5.81658 17.4024 5.18342 17.7929 4.79289L19.2929 3.29289ZM3 11C3.55228 11 4 11.4477 4 12C4 12.5523 3.55228 13 3 13H1C0.447715 13 0 12.5523 0 12C0 11.4477 0.447715 11 1 11H3Z" fill="#4B5568"/>
</svg>
