<svg width="40" height="40" viewBox="0 0 40 40" fill="none" xmlns="http://www.w3.org/2000/svg">
<path d="M22.5 6.66667V5.83333C22.5 4.45262 21.3807 3.33333 20 3.33333C18.6193 3.33333 17.5 4.45262 17.5 5.83333V22.7815C17.5 23.3765 17.1829 23.9263 16.6679 24.2242C14.6199 25.4089 13.3333 27.5915 13.3333 30C13.3333 33.6819 16.3181 36.6667 20 36.6667C23.6819 36.6667 26.6667 33.6819 26.6667 30C26.6667 27.5915 25.3801 25.4089 23.3321 24.2242C22.8171 23.9263 22.5 23.3765 22.5 22.7815V21.6667H21.6667C20.7462 21.6667 20 20.9205 20 20C20 19.0795 20.7462 18.3333 21.6667 18.3333H22.5V15.8333H21.6667C20.7462 15.8333 20 15.0871 20 14.1667C20 13.2462 20.7462 12.5 21.6667 12.5H22.5V10H21.6667C20.7462 10 20 9.25381 20 8.33333C20 7.41286 20.7462 6.66667 21.6667 6.66667H22.5ZM30 30C30 35.5228 25.5228 40 20 40C14.4772 40 10 35.5228 10 30C10 26.7279 11.586 23.7306 14.1667 21.8765V5.83333C14.1667 2.61167 16.7783 0 20 0C23.2217 0 25.8333 2.61167 25.8333 5.83333V21.8765C28.414 23.7306 30 26.7279 30 30ZM20 33.3333C18.1591 33.3333 16.6667 31.8409 16.6667 30C16.6667 28.159 18.1591 26.6667 20 26.6667C21.8409 26.6667 23.3333 28.159 23.3333 30C23.3333 31.8409 21.8409 33.3333 20 33.3333Z" fill="#4B5568"/>
</svg>
