<svg width="30" height="30" viewBox="0 0 30 30" fill="none" xmlns="http://www.w3.org/2000/svg">
<path d="M20 26.875C19.5032 26.8732 19.0271 26.6756 18.675 26.325L8.67501 16.325C8.32079 15.9751 8.12143 15.4979 8.12143 15C8.12143 14.5021 8.32079 14.0249 8.67501 13.675L18.675 3.67501C19.1424 3.17337 19.8464 2.96688 20.5107 3.13654C21.1751 3.3062 21.6938 3.82495 21.8635 4.48928C22.0331 5.15362 21.8266 5.85758 21.325 6.32501L12.65 15L21.325 23.675C21.6792 24.0249 21.8786 24.5021 21.8786 25C21.8786 25.4979 21.6792 25.9751 21.325 26.325C20.9729 26.6756 20.4968 26.8732 20 26.875Z" fill="white"/>
</svg>
