<svg width="38" height="38" viewBox="0 0 38 38" fill="none" xmlns="http://www.w3.org/2000/svg">
<path fill-rule="evenodd" clip-rule="evenodd" d="M13.2076 0C10.5159 0 9.51087 3.7059 11.4 5.43512V15.14C11.4 15.6999 11.1998 16.2369 10.8435 16.6328L1.66949 26.8261C0.600534 28.0138 0 29.6248 0 31.3045V31.6667C0 35.1645 2.55198 38 5.7 38H32.3C35.448 38 38 35.1645 38 31.6667V31.3045C38 29.6248 37.3995 28.0138 36.3305 26.8261L27.1565 16.6328C26.8002 16.2369 26.6 15.6999 26.6 15.14V5.43512C28.4891 3.70589 27.4841 0 24.7924 0H13.2076ZM27.713 23.2222H10.287L13.5305 19.6183C14.5995 18.4306 15.2 16.8197 15.2 15.14V4.82326C15.2 4.61906 15.1818 4.41792 15.1469 4.22222H22.8531C22.8182 4.41792 22.8 4.61906 22.8 4.82326V15.14C22.8 16.8197 23.4005 18.4306 24.4695 19.6183L27.713 23.2222Z" fill="#4B5568"/>
</svg>
