<svg width="30" height="28" viewBox="0 0 30 28" fill="none" xmlns="http://www.w3.org/2000/svg">
<path d="M27.1373 23.593L22.4998 19.3139C24.2999 17.2261 25.1716 14.5759 24.9358 11.9085C24.6999 9.24104 23.3743 6.75904 21.2317 4.97283C19.089 3.18663 16.292 2.23198 13.4159 2.30519C10.5398 2.3784 7.80316 3.4739 5.76869 5.36644C3.73421 7.25897 2.55655 9.80469 2.47785 12.4801C2.39915 15.1556 3.42539 17.7574 5.34556 19.7506C7.26574 21.7438 9.93389 22.9769 12.8014 23.1963C15.6689 23.4157 18.5178 22.6048 20.7623 20.9302L25.3623 25.2093C25.4785 25.3183 25.6167 25.4048 25.769 25.4638C25.9214 25.5229 26.0847 25.5532 26.2498 25.5532C26.4148 25.5532 26.5782 25.5229 26.7305 25.4638C26.8828 25.4048 27.0211 25.3183 27.1373 25.2093C27.3626 24.9925 27.4885 24.7027 27.4885 24.4012C27.4885 24.0996 27.3626 23.8098 27.1373 23.593ZM13.7498 20.9302C12.0192 20.9302 10.3274 20.4529 8.88852 19.5585C7.44959 18.6641 6.32808 17.3929 5.66581 15.9056C5.00355 14.4183 4.83027 12.7817 5.16789 11.2027C5.50551 9.62383 6.33886 8.1735 7.56257 7.03517C8.78628 5.89683 10.3454 5.12162 12.0427 4.80755C13.7401 4.49349 15.4994 4.65468 17.0982 5.27074C18.6971 5.8868 20.0637 6.93007 21.0251 8.26861C21.9866 9.60715 22.4998 11.1808 22.4998 12.7907C22.4998 14.9494 21.5779 17.0198 19.9369 18.5462C18.296 20.0727 16.0704 20.9302 13.7498 20.9302Z" fill="black" fill-opacity="0.67"/>
</svg>
