<svg width="34" height="34" viewBox="0 0 34 34" fill="none" xmlns="http://www.w3.org/2000/svg">
<path d="M24.0833 18.4167H18.4166V24.0834H15.5833V18.4167H9.91659V15.5834H15.5833V9.91671H18.4166V15.5834H24.0833V18.4167ZM16.9999 2.83337C15.1395 2.83337 13.2973 3.19981 11.5786 3.91175C9.85979 4.62369 8.29807 5.6672 6.98257 6.98269C4.32581 9.63946 2.83325 13.2428 2.83325 17C2.83325 20.7573 4.32581 24.3606 6.98257 27.0174C8.29807 28.3329 9.85979 29.3764 11.5786 30.0883C13.2973 30.8003 15.1395 31.1667 16.9999 31.1667C20.7572 31.1667 24.3605 29.6742 27.0173 27.0174C29.674 24.3606 31.1666 20.7573 31.1666 17C31.1666 15.1396 30.8002 13.2975 30.0882 11.5787C29.3763 9.85991 28.3328 8.29819 27.0173 6.98269C25.7018 5.6672 24.14 4.62369 22.4213 3.91175C20.7025 3.19981 18.8603 2.83337 16.9999 2.83337Z" fill="white"/>
</svg>
