<svg width="40" height="40" viewBox="0 0 40 40" fill="none" xmlns="http://www.w3.org/2000/svg">
<path d="M29.9476 12.6992C30.127 12.6992 30.3049 12.7319 30.4732 12.7958C31.2591 13.0945 31.661 13.9922 31.3707 14.8009L28.0954 23.927C27.6553 25.1532 26.5195 25.9675 25.2491 25.9675H11.6054C9.92969 25.9675 8.57127 24.5697 8.57127 22.8455V12.6992H29.9476ZM5.53718 11.2384V22.8455C5.53718 26.2939 8.254 29.0894 11.6054 29.0894H25.2491C27.7898 29.0894 30.0614 27.4609 30.9416 25.0085L34.2169 15.8824C35.0877 13.4563 33.8821 10.7632 31.5242 9.86719C31.0195 9.67539 30.4857 9.57722 29.9476 9.57722H8.5682V4.89429C8.5682 4.03219 7.88899 3.33331 7.05115 3.33331H4.01705C3.17921 3.33331 2.5 4.03219 2.5 4.89429C2.5 5.75639 3.17921 6.45526 4.01705 6.45526H5.5341V11.1382C5.5341 11.1719 5.53514 11.2053 5.53718 11.2384ZM27.5313 30.6504C28.7881 30.6504 29.8069 31.6987 29.8069 32.9918C29.8069 34.285 28.7881 35.3333 27.5313 35.3333C26.2746 35.3333 25.2557 34.285 25.2557 32.9918C25.2557 31.6987 26.2746 30.6504 27.5313 30.6504ZM9.32672 30.6504C10.5835 30.6504 11.6023 31.6987 11.6023 32.9918C11.6023 34.285 10.5835 35.3333 9.32672 35.3333C8.06996 35.3333 7.05115 34.285 7.05115 32.9918C7.05115 31.6987 8.06996 30.6504 9.32672 30.6504Z" fill="#053418"/>
</svg>
