<svg width="24" height="24" viewBox="0 0 24 24" fill="none" xmlns="http://www.w3.org/2000/svg">
<path d="M17.8133 16.3991L22.4105 20.9963C22.801 21.3868 22.801 22.02 22.4105 22.4105C22.02 22.801 21.3868 22.801 20.9963 22.4105L16.3991 17.8133C14.8594 19.0449 12.9064 19.7814 10.7814 19.7814C5.81081 19.7814 1.78137 15.7519 1.78137 10.7814C1.78137 5.81081 5.81081 1.78137 10.7814 1.78137C15.7519 1.78137 19.7814 5.81081 19.7814 10.7814C19.7814 12.9064 19.0449 14.8594 17.8133 16.3991ZM10.7814 17.7814C14.6474 17.7814 17.7814 14.6474 17.7814 10.7814C17.7814 6.91538 14.6474 3.78137 10.7814 3.78137C6.91538 3.78137 3.78137 6.91538 3.78137 10.7814C3.78137 14.6474 6.91538 17.7814 10.7814 17.7814Z" fill="#4B5568"/>
</svg>
