<svg width="35" height="30" viewBox="0 0 35 30" fill="none" xmlns="http://www.w3.org/2000/svg">
<path d="M3.33333 22.1053V12.6316H23.4167C25.0833 11.6368 27.05 11.0526 29.1667 11.0526C30.65 11.0526 32.05 11.3368 33.3333 11.8421V3.15789C33.3333 1.40526 31.8333 0 30 0H3.33333C1.48333 0 0 1.40526 0 3.15789V22.1053C0 23.8579 1.5 25.2632 3.33333 25.2632H19.1667C18.7333 24.2842 18.4667 23.2105 18.3833 22.1053H3.33333ZM3.33333 3.15789H30V6.31579H3.33333V3.15789ZM35 21.3158C35 22.6105 34.5833 23.8105 33.8833 24.8053L32.0667 23.0842C32.35 22.5474 32.5 21.9474 32.5 21.3158C32.5 19.1368 30.6333 17.3684 28.3333 17.3684V19.7368L24.5833 16.1842L28.3333 12.6316V15C32.0167 15 35 17.8263 35 21.3158ZM28.3333 22.8947L32.0833 26.4474L28.3333 30V27.6316C24.65 27.6316 21.6667 24.8053 21.6667 21.3158C21.6667 20.0211 22.0833 18.8211 22.7833 17.8263L24.6 19.5474C24.3167 20.0842 24.1667 20.6842 24.1667 21.3158C24.1667 23.4947 26.0333 25.2632 28.3333 25.2632V22.8947Z" fill="#B6B6B6"/>
</svg>
