<svg width="30" height="30" viewBox="0 0 30 30" fill="none" xmlns="http://www.w3.org/2000/svg">
<path d="M28.064 21.6837C27.7581 21.3579 26.6783 20.3946 24.6931 19.1202C22.6933 17.8347 21.2185 17.0331 20.7954 16.8462C20.7582 16.8296 20.7171 16.8236 20.6766 16.8286C20.6361 16.8337 20.5978 16.8497 20.5658 16.8749C19.8843 17.4063 18.737 18.3825 18.6755 18.4352C18.2783 18.7757 18.2783 18.7757 17.9531 18.6696C17.3812 18.4821 15.6046 17.5388 14.0566 15.9872C12.5085 14.4356 11.5165 12.6151 11.329 12.0438C11.2218 11.7181 11.2218 11.7181 11.5634 11.3208C11.6161 11.2593 12.5929 10.112 13.1244 9.43114C13.1496 9.39908 13.1655 9.36075 13.1706 9.32028C13.1757 9.27982 13.1696 9.23873 13.1531 9.20145C12.9661 8.77782 12.1646 7.3036 10.879 5.3038C9.60287 3.31923 8.64076 2.23935 8.31498 1.93349C8.28508 1.90528 8.24813 1.88565 8.20802 1.87668C8.1679 1.86771 8.12611 1.86972 8.08705 1.88251C6.94827 2.27385 5.84951 2.77319 4.8058 3.37372C3.79824 3.95944 2.84434 4.63295 1.95522 5.38642C1.92418 5.4128 1.90091 5.44714 1.8879 5.48574C1.8749 5.52435 1.87265 5.56577 1.88139 5.60556C2.00385 6.17626 2.5892 8.55868 4.40561 11.8587C6.25892 15.2266 7.5433 16.9522 10.265 19.6645C12.9867 22.3768 14.7667 23.7386 18.1382 25.5919C21.4382 27.4083 23.8218 27.9942 24.3913 28.1155C24.4312 28.1242 24.4727 28.1219 24.5114 28.1089C24.5501 28.0959 24.5845 28.0727 24.6111 28.0417C25.3644 27.1526 26.0377 26.1987 26.6232 25.1911C27.2236 24.1473 27.7229 23.0486 28.1144 21.9098C28.1269 21.8711 28.1288 21.8297 28.12 21.7899C28.1111 21.7501 28.0918 21.7135 28.064 21.6837Z" fill="#263E30"/>
</svg>
