<svg width="24" height="24" viewBox="0 0 24 24" fill="none" xmlns="http://www.w3.org/2000/svg">
<path d="M22 14.9899C22.0001 14.9971 22.0001 15.0044 22 15.0116V18C22 20.2091 20.2091 22 18 22H6C3.79086 22 2 20.2091 2 18V6C2 3.79086 3.79086 2 6 2H18C20.2091 2 22 3.79086 22 6V14.9899ZM20 13V6C20 4.89543 19.1046 4 18 4H6C4.89543 4 4 4.89543 4 6V18C4 18.4285 4.13474 18.8255 4.36417 19.151L6.99521 15.2044C7.91426 13.8258 9.77687 13.4533 11.1555 14.3724C11.2016 14.4032 11.247 14.4352 11.2914 14.4685L12.8246 15.6185L15.0082 12.889C16.0204 11.6237 17.8545 11.3909 19.1508 12.3631L20 13ZM20 15.5L17.9508 13.9631C17.5187 13.639 16.9073 13.7166 16.5699 14.1384L13.7809 17.6247C13.4435 18.0465 12.8321 18.1241 12.4 17.8L10.0914 16.0685C10.0766 16.0574 10.0615 16.0467 10.0461 16.0365C9.58653 15.7301 8.96566 15.8543 8.65931 16.3138L6.20185 20H18C19.1046 20 20 19.1046 20 18V15.5ZM8.5 12C6.567 12 5 10.433 5 8.5C5 6.567 6.567 5 8.5 5C10.433 5 12 6.567 12 8.5C12 10.433 10.433 12 8.5 12ZM8.5 10C9.32843 10 10 9.32843 10 8.5C10 7.67157 9.32843 7 8.5 7C7.67157 7 7 7.67157 7 8.5C7 9.32843 7.67157 10 8.5 10Z" fill="#4B5568"/>
</svg>
