<svg width="30" height="30" viewBox="0 0 30 30" fill="none" xmlns="http://www.w3.org/2000/svg">
<path fill-rule="evenodd" clip-rule="evenodd" d="M7.5 5H22.5C25.2614 5 27.5 7.23858 27.5 10V21.25C27.5 24.0114 25.2614 26.25 22.5 26.25H7.5C4.73858 26.25 2.5 24.0114 2.5 21.25V10C2.5 7.23858 4.73858 5 7.5 5ZM16.75 16.9375L24.675 11.0625C25.0287 10.8025 25.1068 10.306 24.85 9.95C24.7276 9.78001 24.5416 9.66682 24.3344 9.6362C24.1271 9.60559 23.9163 9.66017 23.75 9.7875L15.7375 15.625C15.537 15.8352 15.2592 15.9541 14.9687 15.9541C14.6783 15.9541 14.4005 15.8352 14.2 15.625L6.25 9.7875C6.08447 9.66418 5.87659 9.61198 5.67244 9.64248C5.46829 9.67299 5.28474 9.78368 5.1625 9.95C4.90303 10.3028 4.97546 10.7987 5.325 11.0625L13.2 16.875C13.69 17.3399 14.3371 17.6032 15.0125 17.6125C15.6556 17.6124 16.2754 17.3716 16.75 16.9375Z" fill="#263E30"/>
</svg>
