<svg width="30" height="30" viewBox="0 0 30 30" fill="none" xmlns="http://www.w3.org/2000/svg">
<path d="M15.0018 13.1213C16.0373 13.1213 16.8768 12.2819 16.8768 11.2463C16.8768 10.2108 16.0373 9.37134 15.0018 9.37134C13.9662 9.37134 13.1268 10.2108 13.1268 11.2463C13.1268 12.2819 13.9662 13.1213 15.0018 13.1213Z" fill="#263E30" fill-opacity="0.64"/>
<path d="M15.002 1.87134C9.8329 1.87134 5.62704 5.8938 5.62704 10.8362C5.62704 13.1899 6.69989 16.32 8.81571 20.1397C10.5149 23.2065 12.4807 25.9797 13.5032 27.3596C13.676 27.5954 13.9019 27.7871 14.1626 27.9193C14.4233 28.0515 14.7115 28.1204 15.0038 28.1204C15.2961 28.1204 15.5843 28.0515 15.845 27.9193C16.1057 27.7871 16.3316 27.5954 16.5044 27.3596C17.5251 25.9797 19.4927 23.2065 21.1919 20.1397C23.3042 16.3211 24.377 13.1911 24.377 10.8362C24.377 5.8938 20.1712 1.87134 15.002 1.87134ZM15.002 14.9963C14.2604 14.9963 13.5353 14.7764 12.9186 14.3644C12.302 13.9523 11.8213 13.3666 11.5375 12.6814C11.2537 11.9962 11.1794 11.2422 11.3241 10.5148C11.4688 9.78732 11.8259 9.11914 12.3504 8.59469C12.8748 8.07024 13.543 7.71309 14.2704 7.56839C14.9979 7.4237 15.7519 7.49796 16.4371 7.78179C17.1223 8.06562 17.708 8.54627 18.12 9.16295C18.5321 9.77964 18.752 10.5047 18.752 11.2463C18.751 12.2406 18.3555 13.1938 17.6525 13.8968C16.9495 14.5998 15.9963 14.9953 15.002 14.9963Z" fill="#263E30" fill-opacity="0.64"/>
</svg>
