<svg width="20" height="20" viewBox="0 0 20 20" fill="none" xmlns="http://www.w3.org/2000/svg">
<path d="M19.9999 12.9899C20 12.9971 20 13.0044 19.9999 13.0116V16C19.9999 18.2091 18.2091 19.9999 16 19.9999H3.99999C1.79086 19.9999 0 18.2091 0 16V3.99999C0 1.79086 1.79086 0 3.99999 0H16C18.2091 0 19.9999 1.79086 19.9999 3.99999V12.9899ZM17.9999 11V3.99999C17.9999 2.89542 17.1045 1.99999 16 1.99999H3.99999C2.89542 1.99999 1.99999 2.89542 1.99999 3.99999V16C1.99999 16.4284 2.13474 16.8254 2.36416 17.1509L4.99519 13.2044C5.91424 11.8258 7.77685 11.4533 9.15543 12.3723C9.20161 12.4031 9.24693 12.4352 9.29133 12.4685L10.8246 13.6184L13.0081 10.889C14.0204 9.62367 15.8544 9.39083 17.1507 10.3631L17.9999 11ZM17.9999 13.5L15.9507 11.963C15.5186 11.639 14.9073 11.7166 14.5699 12.1384L11.7808 15.6246C11.4434 16.0464 10.8321 16.124 10.4 15.8L8.09133 14.0685C8.07653 14.0574 8.06143 14.0467 8.04603 14.0364C7.5865 13.7301 6.96564 13.8542 6.65929 14.3138L4.20184 17.9999H16C17.1045 17.9999 17.9999 17.1045 17.9999 16V13.5ZM6.49998 9.99997C4.56699 9.99997 2.99999 8.43297 2.99999 6.49998C2.99999 4.56699 4.56699 2.99999 6.49998 2.99999C8.43297 2.99999 9.99997 4.56699 9.99997 6.49998C9.99997 8.43297 8.43297 9.99997 6.49998 9.99997ZM6.49998 7.99998C7.3284 7.99998 7.99998 7.3284 7.99998 6.49998C7.99998 5.67156 7.3284 4.99998 6.49998 4.99998C5.67156 4.99998 4.99998 5.67156 4.99998 6.49998C4.99998 7.3284 5.67156 7.99998 6.49998 7.99998Z" fill="#4B5568"/>
</svg>
