<svg width="26" height="24" viewBox="0 0 26 24" fill="none" xmlns="http://www.w3.org/2000/svg">
<g clip-path="url(#clip0_150_3841)">
<path d="M24.5056 4.50061C25.0328 4.50061 25.4603 4.24875 25.4603 3.93811V2.06311C25.4603 1.75247 25.0328 1.50061 24.5056 1.50061H0.954762C0.427495 1.50061 0 1.75247 0 2.06311V4.16067C0 4.47131 0.427495 4.72317 0.954762 4.72317H7.73994C9.91266 4.72317 11.5798 5.18995 12.5909 6.00061H0.954762C0.427495 6.00061 0 6.25247 0 6.56311V8.43811C0 8.74875 0.427495 9.00061 0.954762 9.00061H13.586C13.0914 10.6921 10.9635 11.749 7.63809 11.749H0.954762C0.427495 11.749 0 12.0008 0 12.3115V14.7964C0 14.9534 0.111389 15.1033 0.307195 15.2098L13.4393 22.3515C13.6157 22.4474 13.8469 22.5006 14.0869 22.5006H20.6558C21.5249 22.5006 21.942 21.8721 21.3034 21.5248L9.29867 14.9962C15.3852 14.8865 19.7329 12.4933 20.3037 9.00061H24.5056C25.0328 9.00061 25.4603 8.74875 25.4603 8.43811V6.56311C25.4603 6.25247 25.0328 6.00061 24.5056 6.00061H19.836C19.5586 5.45963 19.1772 4.95783 18.702 4.50061H24.5056Z" fill="#263E30"/>
</g>
<defs>
<clipPath id="clip0_150_3841">
<rect width="25.4603" height="24" fill="white"/>
</clipPath>
</defs>
</svg>
