<svg width="41" height="40" viewBox="0 0 41 40" fill="none" xmlns="http://www.w3.org/2000/svg">
<path d="M20.4004 37.9768C12.4857 37.9768 6.06955 31.5607 6.06955 23.6459C6.06955 16.872 9.74023 10.1187 16.9474 3.38523C18.8912 1.56917 21.9096 1.56917 23.8534 3.38523C31.0606 10.1187 34.7313 16.872 34.7313 23.6459C34.7313 31.5607 28.3151 37.9768 20.4004 37.9768ZM20.4004 34.6048C26.4529 34.6048 31.3593 29.6984 31.3593 23.6459C31.3593 17.9324 28.1347 11.9998 21.5514 5.84917C20.9035 5.24381 19.8974 5.24381 19.2494 5.84917C12.6661 11.9998 9.44152 17.9324 9.44152 23.6459C9.44152 29.6984 14.348 34.6048 20.4004 34.6048ZM11.9705 22.868C11.9705 21.9368 12.7253 21.182 13.6565 21.182C14.5876 21.182 15.3425 21.9368 15.3425 22.868C15.3425 25.6614 17.607 27.9259 20.4004 27.9259C21.3316 27.9259 22.0864 28.6808 22.0864 29.6119C22.0864 30.5431 21.3316 31.2979 20.4004 31.2979C15.7447 31.2979 11.9705 27.5237 11.9705 22.868Z" fill="#4B5568"/>
</svg>
