<svg width="19" height="28" viewBox="0 0 19 28" fill="none" xmlns="http://www.w3.org/2000/svg">
<path d="M14.6124 28L3.79872 27.9763C2.62092 27.9223 1.52485 27.2395 0.809852 26.1145C0.0948538 24.9895 -0.164369 23.5398 0.102983 22.1612L0.385342 20.5667C0.710646 18.408 2.25915 16.8245 4.08565 16.7828L14.3633 16.8053C16.1896 16.8551 17.7328 18.4453 18.0508 20.6054L18.3278 22.2012C18.5904 23.5809 18.3263 25.0295 17.6075 26.1513C16.8887 27.2732 15.7904 27.9511 14.6124 28Z" fill="#263E30"/>
<path d="M9.81183 13.9968L8.64657 13.9943C6.07233 13.9886 3.98973 11.4782 3.99496 8.38702L4.0012 4.69298C4.0002 3.44491 4.41373 2.2478 5.15016 1.3669C5.88659 0.485995 6.8851 -0.00595553 7.92444 5.42664e-05L10.5813 0.00587901C11.6206 0.00442652 12.6174 0.500752 13.3509 1.38488C14.0843 2.269 14.4938 3.46792 14.4886 4.71597L14.4824 8.41001C14.4798 9.89444 13.9864 11.317 13.1105 12.3647C12.2346 13.4125 11.048 13.9995 9.81183 13.9968Z" fill="#263E30"/>
</svg>
