<svg width="40" height="40" viewBox="0 0 40 40" fill="none" xmlns="http://www.w3.org/2000/svg">
<g clip-path="url(#clip0_0_850)">
<path d="M10 14.6667H13.3333V18H16.6667V21.3333H13.3333V24.6667H10V21.3333H6.66667V18H10V14.6667ZM30.8333 14.6667C31.4964 14.6667 32.1323 14.9301 32.6011 15.3989C33.0699 15.8677 33.3333 16.5036 33.3333 17.1667C33.3333 17.8297 33.0699 18.4656 32.6011 18.9344C32.1323 19.4033 31.4964 19.6667 30.8333 19.6667C30.1703 19.6667 29.5344 19.4033 29.0656 18.9344C28.5967 18.4656 28.3333 17.8297 28.3333 17.1667C28.3333 16.5036 28.5967 15.8677 29.0656 15.3989C29.5344 14.9301 30.1703 14.6667 30.8333 14.6667ZM25.8333 19.6667C26.4964 19.6667 27.1323 19.9301 27.6011 20.3989C28.0699 20.8677 28.3333 21.5036 28.3333 22.1667C28.3333 22.8297 28.0699 23.4656 27.6011 23.9344C27.1323 24.4033 26.4964 24.6667 25.8333 24.6667C25.1703 24.6667 24.5344 24.4033 24.0656 23.9344C23.5967 23.4656 23.3333 22.8297 23.3333 22.1667C23.3333 21.5036 23.5967 20.8677 24.0656 20.3989C24.5344 19.9301 25.1703 19.6667 25.8333 19.6667ZM28.3333 8C31.4275 8 34.395 9.22916 36.5829 11.4171C38.7708 13.605 40 16.5725 40 19.6667C40 22.7609 38.7708 25.7283 36.5829 27.9162C34.395 30.1042 31.4275 31.3333 28.3333 31.3333C25.0667 31.3333 22.1167 30 20 27.8333C17.8833 30 14.9333 31.3333 11.6667 31.3333C8.57247 31.3333 5.60501 30.1042 3.41709 27.9162C1.22916 25.7283 0 22.7609 0 19.6667C0 16.5725 1.22916 13.605 3.41709 11.4171C5.60501 9.22916 8.57247 8 11.6667 8H28.3333ZM11.6667 11.3333C9.45653 11.3333 7.33691 12.2113 5.77411 13.7741C4.21131 15.3369 3.33333 17.4565 3.33333 19.6667C3.33333 21.8768 4.21131 23.9964 5.77411 25.5592C7.33691 27.122 9.45653 28 11.6667 28C14.4 28 16.8167 26.6833 18.3333 24.6667H21.6667C23.1833 26.6833 25.6 28 28.3333 28C30.5435 28 32.6631 27.122 34.2259 25.5592C35.7887 23.9964 36.6667 21.8768 36.6667 19.6667C36.6667 17.4565 35.7887 15.3369 34.2259 13.7741C32.6631 12.2113 30.5435 11.3333 28.3333 11.3333H11.6667Z" fill="black"/>
</g>
<defs>
<clipPath id="clip0_0_850">
<rect width="40" height="40" fill="white"/>
</clipPath>
</defs>
</svg>
