<svg width="14" height="24" viewBox="0 0 14 24" fill="none" xmlns="http://www.w3.org/2000/svg">
<path d="M11.98 24C11.4789 23.9982 10.9988 23.7989 10.6437 23.4453L0.558303 13.3599C0.201063 13.007 0 12.5258 0 12.0236C0 11.5215 0.201063 11.0402 0.558303 10.6873L10.6437 0.601917C11.1151 0.096001 11.8251 -0.112252 12.4951 0.0588556C13.1651 0.229963 13.6883 0.753142 13.8594 1.42315C14.0305 2.09315 13.8222 2.80313 13.3163 3.27454L4.56724 12.0236L13.3163 20.7727C13.6736 21.1256 13.8746 21.6068 13.8746 22.109C13.8746 22.6112 13.6736 23.0924 13.3163 23.4453C12.9612 23.7989 12.4811 23.9982 11.98 24Z" fill="#426D52"/>
</svg>
