<svg width="40" height="40" viewBox="0 0 40 40" fill="none" xmlns="http://www.w3.org/2000/svg">
<g clip-path="url(#clip0_49_1089)">
<path d="M20 31.6667C13.5567 31.6667 8.33333 26.4433 8.33333 20C8.33333 13.5567 13.5567 8.33333 20 8.33333C26.4433 8.33333 31.6667 13.5567 31.6667 20C31.6667 26.4433 26.4433 31.6667 20 31.6667ZM20 28.3333C24.6024 28.3333 28.3333 24.6024 28.3333 20C28.3333 15.3976 24.6024 11.6667 20 11.6667C15.3976 11.6667 11.6667 15.3976 11.6667 20C11.6667 24.6024 15.3976 28.3333 20 28.3333ZM21.6667 5C21.6667 5.92047 20.9205 6.66667 20 6.66667C19.0795 6.66667 18.3333 5.92047 18.3333 5V1.66667C18.3333 0.746192 19.0795 0 20 0C20.9205 0 21.6667 0.746192 21.6667 1.66667V5ZM35 21.6667C34.0795 21.6667 33.3333 20.9205 33.3333 20C33.3333 19.0795 34.0795 18.3333 35 18.3333H38.3333C39.2538 18.3333 40 19.0795 40 20C40 20.9205 39.2538 21.6667 38.3333 21.6667H35ZM29.6548 32.0118C29.0039 31.361 29.0039 30.3057 29.6548 29.6548C30.3057 29.0039 31.361 29.0039 32.0118 29.6548L34.5118 32.1548C35.1627 32.8057 35.1627 33.861 34.5118 34.5118C33.861 35.1627 32.8057 35.1627 32.1548 34.5118L29.6548 32.0118ZM5.48816 7.84518C4.83728 7.1943 4.83728 6.13903 5.48816 5.48816C6.13903 4.83728 7.1943 4.83728 7.84518 5.48816L10.3452 7.98816C10.9961 8.63903 10.9961 9.6943 10.3452 10.3452C9.6943 10.9961 8.63903 10.9961 7.98816 10.3452L5.48816 7.84518ZM18.3333 35C18.3333 34.0795 19.0795 33.3333 20 33.3333C20.9205 33.3333 21.6667 34.0795 21.6667 35V38.3333C21.6667 39.2538 20.9205 40 20 40C19.0795 40 18.3333 39.2538 18.3333 38.3333V35ZM7.98816 29.6548C8.63903 29.0039 9.6943 29.0039 10.3452 29.6548C10.9961 30.3057 10.9961 31.361 10.3452 32.0118L7.84518 34.5118C7.1943 35.1627 6.13903 35.1627 5.48816 34.5118C4.83728 33.861 4.83728 32.8057 5.48816 32.1548L7.98816 29.6548ZM32.1548 5.48816C32.8057 4.83728 33.861 4.83728 34.5118 5.48816C35.1627 6.13903 35.1627 7.1943 34.5118 7.84518L32.0118 10.3452C31.361 10.9961 30.3057 10.9961 29.6548 10.3452C29.0039 9.6943 29.0039 8.63903 29.6548 7.98816L32.1548 5.48816ZM5 18.3333C5.92047 18.3333 6.66667 19.0795 6.66667 20C6.66667 20.9205 5.92047 21.6667 5 21.6667H1.66667C0.746192 21.6667 0 20.9205 0 20C0 19.0795 0.746192 18.3333 1.66667 18.3333H5Z" fill="#4B5568"/>
</g>
<defs>
<clipPath id="clip0_49_1089">
<rect width="40" height="40" fill="white"/>
</clipPath>
</defs>
</svg>
