<svg width="30" height="20" viewBox="0 0 30 20" fill="none" xmlns="http://www.w3.org/2000/svg">
<path d="M8.18182 0H21.8182C23.9881 0 26.0692 1.05357 27.6036 2.92893C29.138 4.8043 30 7.34784 30 10C30 12.6522 29.138 15.1957 27.6036 17.0711C26.0692 18.9464 23.9881 20 21.8182 20C19.3909 20 17.2227 18.7167 15.7227 16.6667H14.2773C12.7773 18.7167 10.6091 20 8.18182 20C6.01187 20 3.93079 18.9464 2.3964 17.0711C0.86201 15.1957 0 12.6522 0 10C0 7.34784 0.86201 4.8043 2.3964 2.92893C3.93079 1.05357 6.01187 0 8.18182 0ZM6.81818 5V8.33333H4.09091V11.6667H6.81818V15H9.54545V11.6667H12.2727V8.33333H9.54545V5H6.81818ZM19.7727 10C19.2302 10 18.71 10.2634 18.3264 10.7322C17.9428 11.2011 17.7273 11.837 17.7273 12.5C17.7273 13.163 17.9428 13.7989 18.3264 14.2678C18.71 14.7366 19.2302 15 19.7727 15C20.3152 15 20.8355 14.7366 21.2191 14.2678C21.6027 13.7989 21.8182 13.163 21.8182 12.5C21.8182 11.837 21.6027 11.2011 21.2191 10.7322C20.8355 10.2634 20.3152 10 19.7727 10ZM23.8636 5C23.3211 5 22.8009 5.26339 22.4173 5.73223C22.0337 6.20107 21.8182 6.83696 21.8182 7.5C21.8182 8.16304 22.0337 8.79893 22.4173 9.26777C22.8009 9.73661 23.3211 10 23.8636 10C24.4061 10 24.9264 9.73661 25.31 9.26777C25.6936 8.79893 25.9091 8.16304 25.9091 7.5C25.9091 6.83696 25.6936 6.20107 25.31 5.73223C24.9264 5.26339 24.4061 5 23.8636 5Z" fill="#0A6430"/>
</svg>
