<svg width="30" height="30" viewBox="0 0 30 30" fill="none" xmlns="http://www.w3.org/2000/svg">
<path d="M21.0301 8.67943L21.0238 8.67248C20.9269 8.5665 20.8537 8.52226 20.8254 8.50765C20.8133 8.51378 20.7966 8.52325 20.7757 8.5375L20.7755 8.53767C20.7526 8.55321 20.7303 8.57058 20.7067 8.59197L15.0017 13.7573L9.29672 8.59197C9.27309 8.57058 9.25079 8.55321 9.22797 8.53767L9.22772 8.5375C9.20677 8.52323 9.19011 8.51377 9.178 8.50764C9.14713 8.52325 9.07832 8.5646 8.97721 8.67515L8.97177 8.6811L8.96631 8.68704C8.87375 8.78786 8.75629 8.95672 8.66028 9.20548L21.0301 8.67943ZM21.0301 8.67943C21.127 8.78513 21.2469 8.95844 21.3451 9.21045C21.4454 9.47256 21.5008 9.75601 21.5 10.0763L21.5 10.0871V10.0979C21.5 10.3496 21.4537 10.7639 21.2539 11.3472L21.2508 11.3562M21.0301 8.67943L21.2508 11.3562M13.1287 17.5868L13.1296 17.5877C13.7653 18.2431 14.4007 18.851 14.999 19.3965C15.5998 18.8492 16.2357 18.2412 16.8713 17.5868H13.1287ZM13.1287 17.5868C11.5213 15.9304 10.3934 14.4641 9.66559 13.2533L13.1287 17.5868ZM21.2508 11.3562L21.2477 11.3651M21.2508 11.3562L21.2477 11.3651M21.2477 11.3651C21.0863 11.8397 20.8001 12.4767 20.3354 13.2516L21.2477 11.3651ZM8.5 10.0979C8.5 9.76124 8.55861 9.46941 8.66005 9.20608L8.7456 11.3457C8.54618 10.7632 8.5 10.3494 8.5 10.0979ZM9.66455 13.2516C9.20944 12.4927 8.91851 11.8486 8.7461 11.3472L9.66455 13.2516ZM20.3347 13.2529C19.6072 14.4631 18.4799 15.9288 16.8735 17.5845L20.3347 13.2529Z" fill="#3D6803" stroke="#3D6803" stroke-width="17"/>
</svg>
