<svg width="30" height="30" viewBox="0 0 30 30" fill="none" xmlns="http://www.w3.org/2000/svg">
<path fill-rule="evenodd" clip-rule="evenodd" d="M20.6894 8.90252V5.00252C20.6901 3.98367 20.2762 3.0084 19.5429 2.30105C18.8096 1.5937 17.8201 1.21517 16.8019 1.25252H12.7019C11.6837 1.21517 10.6942 1.5937 9.9609 2.30105C9.22761 3.0084 8.8137 3.98367 8.81439 5.00252V8.90252C6.22837 9.81828 4.65546 12.4398 5.06439 15.1525L6.25189 22.365C6.82271 25.2647 9.39738 27.3328 12.3519 27.265H17.2019C20.1564 27.3328 22.7311 25.2647 23.3019 22.365L24.4894 15.1525C24.8922 12.4261 23.2953 9.79962 20.6894 8.90252ZM16.0019 18.665L16.2644 19.44C16.3795 19.7948 16.3194 20.1831 16.1024 20.4863C15.8854 20.7896 15.5373 20.9719 15.1644 20.9775H14.2394C13.8665 20.9719 13.5184 20.7896 13.3014 20.4863C13.0844 20.1831 13.0243 19.7948 13.1394 19.44L13.4019 18.665C13.5434 18.2272 13.433 17.747 13.1144 17.415C12.4061 16.5735 12.4775 15.3255 13.2772 14.5702C14.0769 13.815 15.3269 13.815 16.1266 14.5702C16.9263 15.3255 16.9977 16.5735 16.2894 17.415C15.9708 17.747 15.8604 18.2272 16.0019 18.665ZM10.6894 8.47752H11.1394V8.49002H18.8144V5.00252C18.7671 3.93707 17.8676 3.11019 16.8019 3.15252H12.7019C11.6362 3.11019 10.7367 3.93707 10.6894 5.00252V8.47752Z" fill="#263E30"/>
</svg>
