<svg width="32" height="32" viewBox="0 0 32 32" fill="none" xmlns="http://www.w3.org/2000/svg">
<path d="M16.002 13.996C17.1065 13.996 18.002 13.1006 18.002 11.996C18.002 10.8915 17.1065 9.99603 16.002 9.99603C14.8974 9.99603 14.002 10.8915 14.002 11.996C14.002 13.1006 14.8974 13.996 16.002 13.996Z" fill="#E92828" fill-opacity="0.8"/>
<path d="M16.0022 1.99615C10.4884 1.99615 6.0022 6.28678 6.0022 11.5587C6.0022 14.0693 7.14657 17.408 9.40345 21.4824C11.2159 24.7537 13.3128 27.7118 14.4034 29.1837C14.5877 29.4352 14.8287 29.6397 15.1068 29.7807C15.3849 29.9216 15.6923 29.9951 16.0041 29.9951C16.3159 29.9951 16.6233 29.9216 16.9014 29.7807C17.1794 29.6397 17.4204 29.4352 17.6047 29.1837C18.6934 27.7118 20.7922 24.7537 22.6047 21.4824C24.8578 17.4093 26.0022 14.0705 26.0022 11.5587C26.0022 6.28678 21.5159 1.99615 16.0022 1.99615ZM16.0022 15.9962C15.2111 15.9962 14.4377 15.7616 13.7799 15.322C13.1221 14.8825 12.6094 14.2578 12.3067 13.5269C12.0039 12.796 11.9247 11.9917 12.0791 11.2158C12.2334 10.4399 12.6144 9.72714 13.1738 9.16773C13.7332 8.60832 14.4459 8.22736 15.2218 8.07302C15.9978 7.91867 16.802 7.99789 17.5329 8.30064C18.2638 8.60339 18.8885 9.11608 19.3281 9.77388C19.7676 10.4317 20.0022 11.205 20.0022 11.9962C20.001 13.0567 19.5792 14.0734 18.8293 14.8233C18.0795 15.5732 17.0627 15.995 16.0022 15.9962Z" fill="#E92828" fill-opacity="0.8"/>
</svg>
