<svg width="30" height="30" viewBox="0 0 30 30" fill="none" xmlns="http://www.w3.org/2000/svg">
<path d="M25 13.7487H27.5C27.5 7.33625 22.6588 2.5 16.2375 2.5V5C21.315 5 25 8.67875 25 13.7487Z" fill="#0A6430"/>
<path d="M16.25 9.99999C18.8787 9.99999 20 11.1212 20 13.75H22.5C22.5 9.71874 20.2812 7.49999 16.25 7.49999V9.99999ZM20.5275 16.8037C20.2873 16.5854 19.9717 16.469 19.6472 16.479C19.3228 16.4891 19.015 16.6248 18.7887 16.8575L15.7975 19.9337C15.0775 19.7962 13.63 19.345 12.14 17.8587C10.65 16.3675 10.1987 14.9162 10.065 14.2012L13.1387 11.2087C13.3718 10.9827 13.5077 10.6748 13.5177 10.3503C13.5277 10.0257 13.4111 9.71004 13.1925 9.46999L8.57374 4.39124C8.35504 4.15044 8.05108 4.00437 7.72643 3.98407C7.40177 3.96376 7.08198 4.07082 6.83499 4.28249L4.12249 6.60874C3.90638 6.82564 3.77739 7.11431 3.75999 7.41999C3.74124 7.73249 3.38374 15.135 9.12374 20.8775C14.1312 25.8837 20.4037 26.25 22.1312 26.25C22.3837 26.25 22.5387 26.2425 22.58 26.24C22.8856 26.2229 23.1741 26.0933 23.39 25.8762L25.715 23.1625C25.9268 22.9157 26.0341 22.596 26.014 22.2713C25.9939 21.9467 25.8481 21.6426 25.6075 21.4237L20.5275 16.8037Z" fill="#0A6430"/>
</svg>
