<svg width="25" height="25" viewBox="0 0 25 25" fill="none" xmlns="http://www.w3.org/2000/svg">
<path fill-rule="evenodd" clip-rule="evenodd" d="M16.4062 5.46875C16.4062 4.43275 15.9947 3.43918 15.2621 2.70661C14.5296 1.97405 13.536 1.5625 12.5 1.5625C11.464 1.5625 10.4704 1.97405 9.73786 2.70661C9.0053 3.43918 8.59375 4.43275 8.59375 5.46875V6.25H16.4062V5.46875ZM17.9688 5.46875V6.25H23.4375V21.875C23.4375 22.7038 23.1083 23.4987 22.5222 24.0847C21.9362 24.6708 21.1413 25 20.3125 25H4.6875C3.8587 25 3.06384 24.6708 2.47779 24.0847C1.89174 23.4987 1.5625 22.7038 1.5625 21.875V6.25H7.03125V5.46875C7.03125 4.01835 7.60742 2.62735 8.63301 1.60176C9.6586 0.57617 11.0496 0 12.5 0C13.9504 0 15.3414 0.57617 16.367 1.60176C17.3926 2.62735 17.9688 4.01835 17.9688 5.46875ZM16.9594 13.8344C17.1061 13.6877 17.1885 13.4887 17.1885 13.2812C17.1885 13.0738 17.1061 12.8748 16.9594 12.7281C16.8127 12.5814 16.6137 12.499 16.4062 12.499C16.1988 12.499 15.9998 12.5814 15.8531 12.7281L11.7188 16.8641L9.92813 15.0719C9.85549 14.9992 9.76925 14.9416 9.67435 14.9023C9.57944 14.863 9.47773 14.8428 9.375 14.8428C9.27227 14.8428 9.17056 14.863 9.07565 14.9023C8.98075 14.9416 8.89451 14.9992 8.82187 15.0719C8.74924 15.1445 8.69162 15.2307 8.65231 15.3257C8.613 15.4206 8.59276 15.5223 8.59276 15.625C8.59276 15.7277 8.613 15.8294 8.65231 15.9243C8.69162 16.0193 8.74924 16.1055 8.82187 16.1781L11.1656 18.5219C11.2382 18.5946 11.3244 18.6524 11.4193 18.6917C11.5142 18.7311 11.616 18.7514 11.7188 18.7514C11.8215 18.7514 11.9233 18.7311 12.0182 18.6917C12.1131 18.6524 12.1993 18.5946 12.2719 18.5219L16.9594 13.8344Z" fill="#0A6430"/>
</svg>
