<svg width="19" height="27" viewBox="0 0 19 27" fill="none" xmlns="http://www.w3.org/2000/svg">
<path d="M9.5 0C4.26194 0 0 4.0761 0 9.08438C0 11.4695 1.08716 14.6413 3.23119 18.5119C4.95306 21.6196 6.94509 24.4299 7.98119 25.8281C8.15626 26.0671 8.38518 26.2614 8.64936 26.3953C8.91355 26.5292 9.20558 26.599 9.50178 26.599C9.79798 26.599 10.09 26.5292 10.3542 26.3953C10.6184 26.2614 10.8473 26.0671 11.0224 25.8281C12.0567 24.4299 14.0505 21.6196 15.7724 18.5119C17.9128 14.6425 19 11.4707 19 9.08438C19 4.0761 14.7381 0 9.5 0ZM9.5 13.3C8.74843 13.3 8.01374 13.0771 7.38883 12.6596C6.76393 12.242 6.27687 11.6486 5.98926 10.9542C5.70164 10.2598 5.62639 9.49579 5.77302 8.75866C5.91964 8.02153 6.28155 7.34444 6.81299 6.813C7.34443 6.28156 8.02153 5.91964 8.75866 5.77302C9.49578 5.62639 10.2598 5.70165 10.9542 5.98926C11.6486 6.27687 12.242 6.76393 12.6596 7.38884C13.0771 8.01374 13.3 8.74843 13.3 9.5C13.2989 10.5075 12.8982 11.4734 12.1858 12.1858C11.4734 12.8982 10.5075 13.2989 9.5 13.3Z" fill="#E92828" fill-opacity="0.8"/>
</svg>
