<svg width="32" height="32" viewBox="0 0 32 32" fill="none" xmlns="http://www.w3.org/2000/svg">
<path d="M3.99829 9.99622L5.85704 27.6531C5.89581 28.0217 6.0697 28.363 6.34519 28.611C6.62067 28.859 6.97823 28.9963 7.34892 28.9962H24.6477C25.0183 28.9963 25.3759 28.859 25.6514 28.611C25.9269 28.363 26.1008 28.0217 26.1395 27.6531L27.9983 9.99622H3.99829ZM19.4983 23.5875L15.9983 20.0875L12.4983 23.5875L10.907 21.9962L14.407 18.4962L10.907 14.9962L12.4983 13.405L15.9983 16.905L19.4983 13.405L21.0895 14.9962L17.5895 18.4962L21.0895 21.9962L19.4983 23.5875Z" fill="#0A6430"/>
<path d="M29.2537 2.99597H2.75366C2.33945 2.99597 2.00366 3.33176 2.00366 3.74597V7.24597C2.00366 7.66019 2.33945 7.99597 2.75366 7.99597H29.2537C29.6679 7.99597 30.0037 7.66019 30.0037 7.24597V3.74597C30.0037 3.33176 29.6679 2.99597 29.2537 2.99597Z" fill="#0A6430"/>
</svg>
